<svg width="2165" height="1370" viewBox="0 0 2165 1370" fill="none" xmlns="http://www.w3.org/2000/svg">
<path d="M15.5 165V3H111.25C123.25 3 133.667 4.75 142.5 8.24999C151.333 11.5833 158.167 16.8333 163 24C167.833 31 170.25 40 170.25 51C170.25 58.3333 169 64.6667 166.5 70C164 75.1667 160.5 79.4167 156 82.75C151.5 86.0833 146.25 88.6667 140.25 90.5C134.417 92.3333 128.167 93.5 121.5 94L119 92.25C129.667 92.4167 138.5 93.4167 145.5 95.25C152.5 96.9167 157.833 100.167 161.5 105C165.167 109.667 167 116.583 167 125.75V165H138.75V127.25C138.75 120.917 137.583 116 135.25 112.5C133.083 108.833 129.25 106.333 123.75 105C118.417 103.5 110.75 102.75 100.75 102.75H44V165H15.5ZM44 79.5H111.25C121.25 79.5 128.833 77 134 72C139.167 67 141.75 60.4167 141.75 52.25C141.75 44.4167 139.167 38.4167 134 34.25C128.833 29.9167 121.25 27.75 111.25 27.75H44V79.5ZM233.453 96V140.5H347.203V165H204.953V3H346.953V27.5H233.453V72.5H326.453V96H233.453ZM381.711 165V3H477.461C489.461 3 499.878 4.75 508.711 8.24999C517.544 11.5833 524.378 16.8333 529.211 24C534.044 31 536.461 40 536.461 51C536.461 58.3333 535.211 64.6667 532.711 70C530.211 75.1667 526.711 79.4167 522.211 82.75C517.711 86.0833 512.461 88.6667 506.461 90.5C500.628 92.3333 494.378 93.5 487.711 94L485.211 92.25C495.878 92.4167 504.711 93.4167 511.711 95.25C518.711 96.9167 524.044 100.167 527.711 105C531.378 109.667 533.211 116.583 533.211 125.75V165H504.961V127.25C504.961 120.917 503.794 116 501.461 112.5C499.294 108.833 495.461 106.333 489.961 105C484.628 103.5 476.961 102.75 466.961 102.75H410.211V165H381.711ZM410.211 79.5H477.461C487.461 79.5 495.044 77 500.211 72C505.378 67 507.961 60.4167 507.961 52.25C507.961 44.4167 505.378 38.4167 500.211 34.25C495.044 29.9167 487.461 27.75 477.461 27.75H410.211V79.5ZM658.664 168C639.664 168 623.081 164.583 608.914 157.75C594.914 150.917 583.997 141.25 576.164 128.75C568.497 116.25 564.664 101.333 564.664 84C564.664 66.6667 568.497 51.75 576.164 39.25C583.997 26.5833 594.914 16.9167 608.914 10.25C623.081 3.41666 639.664 -6.55651e-06 658.664 -6.55651e-06C677.831 -6.55651e-06 694.414 3.41666 708.414 10.25C722.414 16.9167 733.247 26.5833 740.914 39.25C748.747 51.75 752.664 66.6667 752.664 84C752.664 101.333 748.747 116.25 740.914 128.75C733.247 141.25 722.414 150.917 708.414 157.75C694.414 164.583 677.831 168 658.664 168ZM658.664 143C671.331 143 682.497 140.833 692.164 136.5C701.831 132.167 709.414 125.667 714.914 117C720.581 108.167 723.414 97.1667 723.414 84C723.414 71 720.581 60.1667 714.914 51.5C709.414 42.6667 701.831 36.0833 692.164 31.75C682.497 27.25 671.331 25 658.664 25C646.164 25 634.997 27.25 625.164 31.75C615.331 36.0833 607.581 42.6667 601.914 51.5C596.247 60.1667 593.414 71 593.414 84C593.414 97.1667 596.247 108.167 601.914 117C607.581 125.667 615.331 132.167 625.164 136.5C634.997 140.833 646.164 143 658.664 143ZM921.025 96.75V3H949.275V99C949.275 109.167 947.859 118.083 945.025 125.75C942.359 133.417 938.525 139.917 933.525 145.25C928.525 150.583 922.609 155 915.775 158.5C908.942 161.833 901.442 164.25 893.275 165.75C885.275 167.25 876.775 168 867.775 168C858.442 168 849.609 167.25 841.275 165.75C832.942 164.25 825.359 161.833 818.525 158.5C811.692 155 805.775 150.583 800.775 145.25C795.942 139.917 792.109 133.417 789.275 125.75C786.609 118.083 785.275 109.167 785.275 99V3H813.775V96.75C813.775 109.417 816.109 119.083 820.775 125.75C825.609 132.25 832.109 136.75 840.275 139.25C848.442 141.75 857.609 143 867.775 143C877.609 143 886.525 141.75 894.525 139.25C902.525 136.75 908.942 132.25 913.775 125.75C918.609 119.083 921.025 109.417 921.025 96.75ZM973.156 3H1128.66V27.5H973.156V3ZM1036.91 24.5H1065.16V165H1036.91V24.5ZM1181.21 96V140.5H1294.96V165H1152.71V3H1294.71V27.5H1181.21V72.5H1274.21V96H1181.21ZM1329.46 165V3H1425.21C1437.21 3 1447.63 4.75 1456.46 8.24999C1465.3 11.5833 1472.13 16.8333 1476.96 24C1481.8 31 1484.21 40 1484.21 51C1484.21 58.3333 1482.96 64.6667 1480.46 70C1477.96 75.1667 1474.46 79.4167 1469.96 82.75C1465.46 86.0833 1460.21 88.6667 1454.21 90.5C1448.38 92.3333 1442.13 93.5 1435.46 94L1432.96 92.25C1443.63 92.4167 1452.46 93.4167 1459.46 95.25C1466.46 96.9167 1471.8 100.167 1475.46 105C1479.13 109.667 1480.96 116.583 1480.96 125.75V165H1452.71V127.25C1452.71 120.917 1451.55 116 1449.21 112.5C1447.05 108.833 1443.21 106.333 1437.71 105C1432.38 103.5 1424.71 102.75 1414.71 102.75H1357.96V165H1329.46ZM1357.96 79.5H1425.21C1435.21 79.5 1442.8 77 1447.96 72C1453.13 67 1455.71 60.4167 1455.71 52.25C1455.71 44.4167 1453.13 38.4167 1447.96 34.25C1442.8 29.9167 1435.21 27.75 1425.21 27.75H1357.96V79.5ZM103 468C84 468 67.4167 464.583 53.25 457.75C39.25 450.917 28.3333 441.25 20.5 428.75C12.8333 416.25 9 401.333 9 384C9 366.667 12.8333 351.75 20.5 339.25C28.3333 326.583 39.25 316.917 53.25 310.25C67.4167 303.417 84 300 103 300C122.167 300 138.75 303.417 152.75 310.25C166.75 316.917 177.583 326.583 185.25 339.25C193.083 351.75 197 366.667 197 384C197 401.333 193.083 416.25 185.25 428.75C177.583 441.25 166.75 450.917 152.75 457.75C138.75 464.583 122.167 468 103 468ZM103 443C115.667 443 126.833 440.833 136.5 436.5C146.167 432.167 153.75 425.667 159.25 417C164.917 408.167 167.75 397.167 167.75 384C167.75 371 164.917 360.167 159.25 351.5C153.75 342.667 146.167 336.083 136.5 331.75C126.833 327.25 115.667 325 103 325C90.5 325 79.3333 327.25 69.5 331.75C59.6667 336.083 51.9167 342.667 46.25 351.5C40.5833 360.167 37.75 371 37.75 384C37.75 397.167 40.5833 408.167 46.25 417C51.9167 425.667 59.6667 432.167 69.5 436.5C79.3333 440.833 90.5 443 103 443ZM253.611 410.75V387H319.111C328.278 387 335.611 384.333 341.111 379C346.778 373.667 349.611 366.5 349.611 357.5C349.611 348.167 346.778 340.917 341.111 335.75C335.611 330.417 328.278 327.75 319.111 327.75H257.611V465H229.111V303H317.111C325.611 303 333.528 304.167 340.861 306.5C348.195 308.667 354.611 312 360.111 316.5C365.778 321 370.111 326.667 373.111 333.5C376.278 340.167 377.861 348.167 377.861 357.5C377.861 366.667 376.278 374.667 373.111 381.5C370.111 388.167 365.778 393.667 360.111 398C354.611 402.333 348.195 405.583 340.861 407.75C333.528 409.75 325.611 410.75 317.111 410.75H253.611ZM437.555 396V440.5H551.305V465H409.055V303H551.055V327.5H437.555V372.5H530.555V396H437.555ZM735.563 435.5L727.063 438.75V303H755.313V465H727.063L605.563 333.25L614.313 330V465H585.813V303H614.313L735.563 435.5ZM783.559 411.25H811.309C811.975 417.417 814.392 423 818.559 428C822.892 432.833 828.559 436.667 835.559 439.5C842.725 442.167 850.892 443.5 860.059 443.5C868.225 443.5 874.975 442.5 880.309 440.5C885.642 438.5 889.559 435.75 892.059 432.25C894.725 428.583 896.059 424.333 896.059 419.5C896.059 414.667 894.475 410.917 891.309 408.25C888.309 405.417 883.642 403.083 877.309 401.25C870.975 399.25 862.892 397.333 853.059 395.5C844.892 394 836.975 392 829.309 389.5C821.642 387 814.725 383.833 808.559 380C802.559 376.167 797.809 371.5 794.309 366C790.809 360.333 789.059 353.667 789.059 346C789.059 337.333 791.475 329.5 796.309 322.5C801.309 315.5 808.642 310 818.309 306C827.975 302 839.725 300 853.559 300C874.725 300 890.892 304.917 902.059 314.75C913.225 324.417 918.642 337.583 918.309 354.25H891.059C890.559 343.75 886.725 336.167 879.559 331.5C872.392 326.833 863.309 324.5 852.309 324.5C842.475 324.5 834.225 326.25 827.559 329.75C820.892 333.25 817.559 338.917 817.559 346.75C817.559 350.083 818.309 353 819.809 355.5C821.475 357.833 824.142 360 827.809 362C831.475 363.833 836.475 365.667 842.809 367.5C849.309 369.167 857.225 371 866.559 373C874.559 374.333 882.059 376.167 889.059 378.5C896.059 380.833 902.142 383.75 907.309 387.25C912.642 390.75 916.809 395.25 919.809 400.75C922.809 406.25 924.309 413 924.309 421C924.309 430.167 921.975 438.333 917.309 445.5C912.642 452.5 905.475 458.083 895.809 462.25C886.309 466.25 873.975 468.25 858.809 468.25C847.309 468.25 837.225 466.917 828.559 464.25C820.059 461.417 812.809 457.833 806.809 453.5C800.809 449 795.975 444.167 792.309 439C788.809 433.833 786.309 428.833 784.809 424C783.475 419 783.059 414.75 783.559 411.25ZM1095.6 468C1081.77 468 1069.27 466.167 1058.1 462.5C1046.93 458.833 1037.35 453.5 1029.35 446.5C1021.52 439.333 1015.43 430.583 1011.1 420.25C1006.93 409.917 1004.85 398.25 1004.85 385.25C1004.85 372.083 1007.1 360.25 1011.6 349.75C1016.1 339.25 1022.52 330.333 1030.85 323C1039.18 315.5 1049.1 309.833 1060.6 306C1072.1 302 1084.77 300 1098.6 300C1114.77 300 1128.77 302.5 1140.6 307.5C1152.43 312.5 1161.85 319.5 1168.85 328.5C1175.85 337.333 1179.85 347.833 1180.85 360H1154.6C1152.43 352.833 1148.85 346.667 1143.85 341.5C1139.02 336.333 1132.77 332.333 1125.1 329.5C1117.6 326.5 1108.77 325 1098.6 325C1085.27 325 1073.68 327.583 1063.85 332.75C1054.18 337.75 1046.77 344.833 1041.6 354C1036.43 363 1033.85 373.417 1033.85 385.25C1033.85 397.083 1036.1 407.333 1040.6 416C1045.27 424.5 1052.27 431.167 1061.6 436C1070.93 440.667 1082.52 443 1096.35 443C1107.02 443 1116.35 441.417 1124.35 438.25C1132.52 434.917 1139.27 430.333 1144.6 424.5C1149.93 418.667 1153.68 411.917 1155.85 404.25L1168.6 401.25C1166.27 422.75 1158.6 439.25 1145.6 450.75C1132.77 462.25 1116.1 468 1095.6 468ZM1161.85 465C1161.85 459.667 1162.1 453.667 1162.6 447C1163.1 440.167 1163.68 433.25 1164.35 426.25C1165.18 419.083 1165.93 412.667 1166.6 407H1099.6V386.5H1187.1V465H1161.85ZM1309.54 468C1290.54 468 1273.96 464.583 1259.79 457.75C1245.79 450.917 1234.88 441.25 1227.04 428.75C1219.38 416.25 1215.54 401.333 1215.54 384C1215.54 366.667 1219.38 351.75 1227.04 339.25C1234.88 326.583 1245.79 316.917 1259.79 310.25C1273.96 303.417 1290.54 300 1309.54 300C1328.71 300 1345.29 303.417 1359.29 310.25C1373.29 316.917 1384.13 326.583 1391.79 339.25C1399.63 351.75 1403.54 366.667 1403.54 384C1403.54 401.333 1399.63 416.25 1391.79 428.75C1384.13 441.25 1373.29 450.917 1359.29 457.75C1345.29 464.583 1328.71 468 1309.54 468ZM1309.54 443C1322.21 443 1333.38 440.833 1343.04 436.5C1352.71 432.167 1360.29 425.667 1365.79 417C1371.46 408.167 1374.29 397.167 1374.29 384C1374.29 371 1371.46 360.167 1365.79 351.5C1360.29 342.667 1352.71 336.083 1343.04 331.75C1333.38 327.25 1322.21 325 1309.54 325C1297.04 325 1285.88 327.25 1276.04 331.75C1266.21 336.083 1258.46 342.667 1252.79 351.5C1247.13 360.167 1244.29 371 1244.29 384C1244.29 397.167 1247.13 408.167 1252.79 417C1258.46 425.667 1266.21 432.167 1276.04 436.5C1285.88 440.833 1297.04 443 1309.54 443ZM1523.65 468C1504.65 468 1488.07 464.583 1473.9 457.75C1459.9 450.917 1448.99 441.25 1441.15 428.75C1433.49 416.25 1429.65 401.333 1429.65 384C1429.65 366.667 1433.49 351.75 1441.15 339.25C1448.99 326.583 1459.9 316.917 1473.9 310.25C1488.07 303.417 1504.65 300 1523.65 300C1542.82 300 1559.4 303.417 1573.4 310.25C1587.4 316.917 1598.24 326.583 1605.9 339.25C1613.74 351.75 1617.65 366.667 1617.65 384C1617.65 401.333 1613.74 416.25 1605.9 428.75C1598.24 441.25 1587.4 450.917 1573.4 457.75C1559.4 464.583 1542.82 468 1523.65 468ZM1523.65 443C1536.32 443 1547.49 440.833 1557.15 436.5C1566.82 432.167 1574.4 425.667 1579.9 417C1585.57 408.167 1588.4 397.167 1588.4 384C1588.4 371 1585.57 360.167 1579.9 351.5C1574.4 342.667 1566.82 336.083 1557.15 331.75C1547.49 327.25 1536.32 325 1523.65 325C1511.15 325 1499.99 327.25 1490.15 331.75C1480.32 336.083 1472.57 342.667 1466.9 351.5C1461.24 360.167 1458.4 371 1458.4 384C1458.4 397.167 1461.24 408.167 1466.9 417C1472.57 425.667 1480.32 432.167 1490.15 436.5C1499.99 440.833 1511.15 443 1523.65 443ZM1734.52 468C1720.68 468 1708.18 466.167 1697.02 462.5C1685.85 458.833 1676.27 453.5 1668.27 446.5C1660.43 439.333 1654.35 430.583 1650.02 420.25C1645.85 409.917 1643.77 398.25 1643.77 385.25C1643.77 372.083 1646.02 360.25 1650.52 349.75C1655.02 339.25 1661.43 330.333 1669.77 323C1678.1 315.5 1688.02 309.833 1699.52 306C1711.02 302 1723.68 300 1737.52 300C1753.68 300 1767.68 302.5 1779.52 307.5C1791.35 312.5 1800.77 319.5 1807.77 328.5C1814.77 337.333 1818.77 347.833 1819.77 360H1793.52C1791.35 352.833 1787.77 346.667 1782.77 341.5C1777.93 336.333 1771.68 332.333 1764.02 329.5C1756.52 326.5 1747.68 325 1737.52 325C1724.18 325 1712.6 327.583 1702.77 332.75C1693.1 337.75 1685.68 344.833 1680.52 354C1675.35 363 1672.77 373.417 1672.77 385.25C1672.77 397.083 1675.02 407.333 1679.52 416C1684.18 424.5 1691.18 431.167 1700.52 436C1709.85 440.667 1721.43 443 1735.27 443C1745.93 443 1755.27 441.417 1763.27 438.25C1771.43 434.917 1778.18 430.333 1783.52 424.5C1788.85 418.667 1792.6 411.917 1794.77 404.25L1807.52 401.25C1805.18 422.75 1797.52 439.25 1784.52 450.75C1771.68 462.25 1755.02 468 1734.52 468ZM1800.77 465C1800.77 459.667 1801.02 453.667 1801.52 447C1802.02 440.167 1802.6 433.25 1803.27 426.25C1804.1 419.083 1804.85 412.667 1805.52 407H1738.52V386.5H1826.02V465H1800.77ZM1889.46 303V440.5H1990.46V465H1860.96V303H1889.46ZM2050.35 396V440.5H2164.1V465H2021.85V303H2163.85V327.5H2050.35V372.5H2143.35V396H2050.35ZM129.5 750.25H116.75L202.75 603H231V765H202.75V643.75L209.25 645.5L138.75 765H107.75L37.25 646L44 644V765H15.5V603H44L129.5 750.25ZM292.395 727V702.75H388.895V727H292.395ZM254.895 765L325.645 603H356.145L427.395 765H396.645L334.645 618.75H347.145L285.395 765H254.895ZM475.535 710.75V687H541.035C550.202 687 557.535 684.333 563.035 679C568.702 673.667 571.535 666.5 571.535 657.5C571.535 648.167 568.702 640.917 563.035 635.75C557.535 630.417 550.202 627.75 541.035 627.75H479.535V765H451.035V603H539.035C547.535 603 555.452 604.167 562.785 606.5C570.118 608.667 576.535 612 582.035 616.5C587.702 621 592.035 626.667 595.035 633.5C598.202 640.167 599.785 648.167 599.785 657.5C599.785 666.667 598.202 674.667 595.035 681.5C592.035 688.167 587.702 693.667 582.035 698C576.535 702.333 570.118 705.583 562.785 707.75C555.452 709.75 547.535 710.75 539.035 710.75H475.535ZM620.229 711.25H647.979C648.645 717.417 651.062 723 655.229 728C659.562 732.833 665.229 736.667 672.229 739.5C679.395 742.167 687.562 743.5 696.729 743.5C704.895 743.5 711.645 742.5 716.979 740.5C722.312 738.5 726.229 735.75 728.729 732.25C731.395 728.583 732.729 724.333 732.729 719.5C732.729 714.667 731.145 710.917 727.979 708.25C724.979 705.417 720.312 703.083 713.979 701.25C707.645 699.25 699.562 697.333 689.729 695.5C681.562 694 673.645 692 665.979 689.5C658.312 687 651.395 683.833 645.229 680C639.229 676.167 634.479 671.5 630.979 666C627.479 660.333 625.729 653.667 625.729 646C625.729 637.333 628.145 629.5 632.979 622.5C637.979 615.5 645.312 610 654.979 606C664.645 602 676.395 600 690.229 600C711.395 600 727.562 604.917 738.729 614.75C749.895 624.417 755.312 637.583 754.979 654.25H727.729C727.229 643.75 723.395 636.167 716.229 631.5C709.062 626.833 699.979 624.5 688.979 624.5C679.145 624.5 670.895 626.25 664.229 629.75C657.562 633.25 654.229 638.917 654.229 646.75C654.229 650.083 654.979 653 656.479 655.5C658.145 657.833 660.812 660 664.479 662C668.145 663.833 673.145 665.667 679.479 667.5C685.979 669.167 693.895 671 703.229 673C711.229 674.333 718.729 676.167 725.729 678.5C732.729 680.833 738.812 683.75 743.979 687.25C749.312 690.75 753.479 695.25 756.479 700.75C759.479 706.25 760.979 713 760.979 721C760.979 730.167 758.645 738.333 753.979 745.5C749.312 752.5 742.145 758.083 732.479 762.25C722.979 766.25 710.645 768.25 695.479 768.25C683.979 768.25 673.895 766.917 665.229 764.25C656.729 761.417 649.479 757.833 643.479 753.5C637.479 749 632.645 744.167 628.979 739C625.479 733.833 622.979 728.833 621.479 724C620.145 719 619.729 714.75 620.229 711.25ZM876.52 603V740.5H977.52V765H848.02V603H876.52ZM1013.66 603H1042.16V765H1013.66V603ZM1235.56 735.5L1227.06 738.75V603H1255.31V765H1227.06L1105.56 633.25L1114.31 630V765H1085.81V603H1114.31L1235.56 735.5ZM1352.31 686.25L1352.06 672.5L1455.56 765H1415.31L1322.56 680L1404.81 603H1444.56L1352.31 686.25ZM1294.31 603H1322.81V765H1294.31V603ZM1463.98 711.25H1491.73C1492.4 717.417 1494.81 723 1498.98 728C1503.31 732.833 1508.98 736.667 1515.98 739.5C1523.15 742.167 1531.31 743.5 1540.48 743.5C1548.65 743.5 1555.4 742.5 1560.73 740.5C1566.06 738.5 1569.98 735.75 1572.48 732.25C1575.15 728.583 1576.48 724.333 1576.48 719.5C1576.48 714.667 1574.9 710.917 1571.73 708.25C1568.73 705.417 1564.06 703.083 1557.73 701.25C1551.4 699.25 1543.31 697.333 1533.48 695.5C1525.31 694 1517.4 692 1509.73 689.5C1502.06 687 1495.15 683.833 1488.98 680C1482.98 676.167 1478.23 671.5 1474.73 666C1471.23 660.333 1469.48 653.667 1469.48 646C1469.48 637.333 1471.9 629.5 1476.73 622.5C1481.73 615.5 1489.06 610 1498.73 606C1508.4 602 1520.15 600 1533.98 600C1555.15 600 1571.31 604.917 1582.48 614.75C1593.65 624.417 1599.06 637.583 1598.73 654.25H1571.48C1570.98 643.75 1567.15 636.167 1559.98 631.5C1552.81 626.833 1543.73 624.5 1532.73 624.5C1522.9 624.5 1514.65 626.25 1507.98 629.75C1501.31 633.25 1497.98 638.917 1497.98 646.75C1497.98 650.083 1498.73 653 1500.23 655.5C1501.9 657.833 1504.56 660 1508.23 662C1511.9 663.833 1516.9 665.667 1523.23 667.5C1529.73 669.167 1537.65 671 1546.98 673C1554.98 674.333 1562.48 676.167 1569.48 678.5C1576.48 680.833 1582.56 683.75 1587.73 687.25C1593.06 690.75 1597.23 695.25 1600.23 700.75C1603.23 706.25 1604.73 713 1604.73 721C1604.73 730.167 1602.4 738.333 1597.73 745.5C1593.06 752.5 1585.9 758.083 1576.23 762.25C1566.73 766.25 1554.4 768.25 1539.23 768.25C1527.73 768.25 1517.65 766.917 1508.98 764.25C1500.48 761.417 1493.23 757.833 1487.23 753.5C1481.23 749 1476.4 744.167 1472.73 739C1469.23 733.833 1466.73 728.833 1465.23 724C1463.9 719 1463.48 714.75 1463.98 711.25ZM1696.52 603H1725.02V765H1696.52V603ZM1918.42 735.5L1909.92 738.75V603H1938.17V765H1909.92L1788.42 633.25L1797.17 630V765H1768.67V603H1797.17L1918.42 735.5ZM38 1027V1002.75H134.5V1027H38ZM0.5 1065L71.25 903H101.75L173 1065H142.25L80.25 918.75H92.75L31 1065H0.5ZM221.141 1010.75V987H286.641C295.807 987 303.141 984.333 308.641 979C314.307 973.667 317.141 966.5 317.141 957.5C317.141 948.167 314.307 940.917 308.641 935.75C303.141 930.417 295.807 927.75 286.641 927.75H225.141V1065H196.641V903H284.641C293.141 903 301.057 904.167 308.391 906.5C315.724 908.667 322.141 912 327.641 916.5C333.307 921 337.641 926.667 340.641 933.5C343.807 940.167 345.391 948.167 345.391 957.5C345.391 966.667 343.807 974.667 340.641 981.5C337.641 988.167 333.307 993.667 327.641 998C322.141 1002.33 315.724 1005.58 308.391 1007.75C301.057 1009.75 293.141 1010.75 284.641 1010.75H221.141ZM400.584 1010.75V987H466.084C475.251 987 482.584 984.333 488.084 979C493.751 973.667 496.584 966.5 496.584 957.5C496.584 948.167 493.751 940.917 488.084 935.75C482.584 930.417 475.251 927.75 466.084 927.75H404.584V1065H376.084V903H464.084C472.584 903 480.501 904.167 487.834 906.5C495.167 908.667 501.584 912 507.084 916.5C512.751 921 517.084 926.667 520.084 933.5C523.251 940.167 524.834 948.167 524.834 957.5C524.834 966.667 523.251 974.667 520.084 981.5C517.084 988.167 512.751 993.667 507.084 998C501.584 1002.33 495.167 1005.58 487.834 1007.75C480.501 1009.75 472.584 1010.75 464.084 1010.75H400.584ZM584.527 903V1040.5H685.527V1065H556.027V903H584.527ZM745.416 996V1040.5H859.166V1065H716.916V903H858.916V927.5H745.416V972.5H838.416V996H745.416ZM1065.29 1050.25H1052.54L1138.54 903H1166.79V1065H1138.54V943.75L1145.04 945.5L1074.54 1065H1043.54L973.041 946L979.791 944V1065H951.291V903H979.791L1065.29 1050.25ZM1228.19 1027V1002.75H1324.69V1027H1228.19ZM1190.69 1065L1261.44 903H1291.94L1363.19 1065H1332.44L1270.44 918.75H1282.94L1221.19 1065H1190.69ZM1411.33 1010.75V987H1476.83C1485.99 987 1493.33 984.333 1498.83 979C1504.49 973.667 1507.33 966.5 1507.33 957.5C1507.33 948.167 1504.49 940.917 1498.83 935.75C1493.33 930.417 1485.99 927.75 1476.83 927.75H1415.33V1065H1386.83V903H1474.83C1483.33 903 1491.24 904.167 1498.58 906.5C1505.91 908.667 1512.33 912 1517.83 916.5C1523.49 921 1527.83 926.667 1530.83 933.5C1533.99 940.167 1535.58 948.167 1535.58 957.5C1535.58 966.667 1533.99 974.667 1530.83 981.5C1527.83 988.167 1523.49 993.667 1517.83 998C1512.33 1002.33 1505.91 1005.58 1498.58 1007.75C1491.24 1009.75 1483.33 1010.75 1474.83 1010.75H1411.33ZM1556.02 1011.25H1583.77C1584.44 1017.42 1586.85 1023 1591.02 1028C1595.35 1032.83 1601.02 1036.67 1608.02 1039.5C1615.19 1042.17 1623.35 1043.5 1632.52 1043.5C1640.69 1043.5 1647.44 1042.5 1652.77 1040.5C1658.1 1038.5 1662.02 1035.75 1664.52 1032.25C1667.19 1028.58 1668.52 1024.33 1668.52 1019.5C1668.52 1014.67 1666.94 1010.92 1663.77 1008.25C1660.77 1005.42 1656.1 1003.08 1649.77 1001.25C1643.44 999.25 1635.35 997.333 1625.52 995.5C1617.35 994 1609.44 992 1601.77 989.5C1594.1 987 1587.19 983.833 1581.02 980C1575.02 976.167 1570.27 971.5 1566.77 966C1563.27 960.333 1561.52 953.667 1561.52 946C1561.52 937.333 1563.94 929.5 1568.77 922.5C1573.77 915.5 1581.1 910 1590.77 906C1600.44 902 1612.19 900 1626.02 900C1647.19 900 1663.35 904.917 1674.52 914.75C1685.69 924.417 1691.1 937.583 1690.77 954.25H1663.52C1663.02 943.75 1659.19 936.167 1652.02 931.5C1644.85 926.833 1635.77 924.5 1624.77 924.5C1614.94 924.5 1606.69 926.25 1600.02 929.75C1593.35 933.25 1590.02 938.917 1590.02 946.75C1590.02 950.083 1590.77 953 1592.27 955.5C1593.94 957.833 1596.6 960 1600.27 962C1603.94 963.833 1608.94 965.667 1615.27 967.5C1621.77 969.167 1629.69 971 1639.02 973C1647.02 974.333 1654.52 976.167 1661.52 978.5C1668.52 980.833 1674.6 983.75 1679.77 987.25C1685.1 990.75 1689.27 995.25 1692.27 1000.75C1695.27 1006.25 1696.77 1013 1696.77 1021C1696.77 1030.17 1694.44 1038.33 1689.77 1045.5C1685.1 1052.5 1677.94 1058.08 1668.27 1062.25C1658.77 1066.25 1646.44 1068.25 1631.27 1068.25C1619.77 1068.25 1609.69 1066.92 1601.02 1064.25C1592.52 1061.42 1585.27 1057.83 1579.27 1053.5C1573.27 1049 1568.44 1044.17 1564.77 1039C1561.27 1033.83 1558.77 1028.83 1557.27 1024C1555.94 1019 1555.52 1014.75 1556.02 1011.25ZM1755.44 1038V1065H1722.19V1038H1755.44ZM76 1297.5V1317.5H266V1365H13.5V1205H265.5V1252.5H76V1272.5H231V1297.5H76ZM339.412 1340.75V1303.25H510.412V1340.75H339.412ZM283.412 1365L390.662 1205H460.162L568.412 1365H499.662L406.912 1221.75H444.162L352.162 1365H283.412ZM572.133 1306.25H640.383C641.549 1309.75 644.966 1312.75 650.633 1315.25C656.299 1317.58 663.883 1319.42 673.383 1320.75C683.049 1321.92 694.216 1322.5 706.883 1322.5C719.383 1322.5 729.216 1322.17 736.383 1321.5C743.716 1320.67 748.883 1319.33 751.883 1317.5C754.883 1315.5 756.383 1312.83 756.383 1309.5C756.383 1306.33 753.966 1303.92 749.133 1302.25C744.299 1300.42 735.716 1299.17 723.383 1298.5C711.049 1297.83 693.716 1297.5 671.383 1297.5C654.716 1297.5 640.299 1296.75 628.133 1295.25C616.133 1293.58 606.216 1291.08 598.383 1287.75C590.716 1284.25 585.049 1279.92 581.383 1274.75C577.716 1269.42 575.883 1263.08 575.883 1255.75C575.883 1243.08 580.133 1232.67 588.633 1224.5C597.299 1216.17 610.299 1210 627.633 1206C645.133 1201.83 666.966 1199.75 693.133 1199.75C731.466 1199.75 760.716 1205.33 780.883 1216.5C801.216 1227.5 811.383 1243.42 811.383 1264.25H746.633C745.799 1258.75 740.633 1254.58 731.133 1251.75C721.633 1248.75 708.133 1247.25 690.633 1247.25C673.299 1247.25 660.383 1248.25 651.883 1250.25C643.549 1252.25 639.383 1255.67 639.383 1260.5C639.383 1263 640.549 1265 642.883 1266.5C645.216 1268 649.216 1269.25 654.883 1270.25C660.716 1271.08 668.883 1271.67 679.383 1272C689.883 1272.33 703.216 1272.5 719.383 1272.5C737.216 1272.5 752.383 1273.42 764.883 1275.25C777.383 1276.92 787.466 1279.5 795.133 1283C802.966 1286.5 808.633 1291 812.133 1296.5C815.633 1301.83 817.383 1308.17 817.383 1315.5C817.383 1328.17 813.383 1338.5 805.383 1346.5C797.383 1354.5 784.716 1360.42 767.383 1364.25C750.049 1368.08 727.383 1370 699.383 1370C683.549 1370 668.966 1369.08 655.633 1367.25C642.466 1365.42 630.716 1362.75 620.383 1359.25C610.049 1355.58 601.299 1351.17 594.133 1346C586.966 1340.67 581.466 1334.75 577.633 1328.25C573.966 1321.58 572.133 1314.25 572.133 1306.25ZM1088.67 1205L987.416 1324.25V1365H924.916V1324.25L823.666 1205H897.416L979.666 1308.75H933.416L1014.92 1205H1088.67ZM1116.19 1327.25V1365H1052.69V1327.25H1116.19Z" fill="white"/>
</svg>
