<svg width="2375" height="1715" viewBox="0 0 2375 1715" fill="none" xmlns="http://www.w3.org/2000/svg">
<path d="M160.75 3L94.75 112.25V165H66.25V112.25L0.25 3H33L88.75 98.5H73.25L128.25 3H160.75ZM261.668 168C242.668 168 226.085 164.583 211.918 157.75C197.918 150.917 187.001 141.25 179.168 128.75C171.501 116.25 167.668 101.333 167.668 84C167.668 66.6667 171.501 51.75 179.168 39.25C187.001 26.5833 197.918 16.9167 211.918 10.25C226.085 3.41666 242.668 -6.55651e-06 261.668 -6.55651e-06C280.835 -6.55651e-06 297.418 3.41666 311.418 10.25C325.418 16.9167 336.251 26.5833 343.918 39.25C351.751 51.75 355.668 66.6667 355.668 84C355.668 101.333 351.751 116.25 343.918 128.75C336.251 141.25 325.418 150.917 311.418 157.75C297.418 164.583 280.835 168 261.668 168ZM261.668 143C274.335 143 285.501 140.833 295.168 136.5C304.835 132.167 312.418 125.667 317.918 117C323.585 108.167 326.418 97.1667 326.418 84C326.418 71 323.585 60.1667 317.918 51.5C312.418 42.6667 304.835 36.0833 295.168 31.75C285.501 27.25 274.335 25 261.668 25C249.168 25 238.001 27.25 228.168 31.75C218.335 36.0833 210.585 42.6667 204.918 51.5C199.251 60.1667 196.418 71 196.418 84C196.418 97.1667 199.251 108.167 204.918 117C210.585 125.667 218.335 132.167 228.168 136.5C238.001 140.833 249.168 143 261.668 143ZM524.029 96.75V3H552.279V99C552.279 109.167 550.863 118.083 548.029 125.75C545.363 133.417 541.529 139.917 536.529 145.25C531.529 150.583 525.613 155 518.779 158.5C511.946 161.833 504.446 164.25 496.279 165.75C488.279 167.25 479.779 168 470.779 168C461.446 168 452.613 167.25 444.279 165.75C435.946 164.25 428.363 161.833 421.529 158.5C414.696 155 408.779 150.583 403.779 145.25C398.946 139.917 395.113 133.417 392.279 125.75C389.613 118.083 388.279 109.167 388.279 99V3H416.779V96.75C416.779 109.417 419.113 119.083 423.779 125.75C428.613 132.25 435.113 136.75 443.279 139.25C451.446 141.75 460.613 143 470.779 143C480.613 143 489.529 141.75 497.529 139.25C505.529 136.75 511.946 132.25 516.779 125.75C521.613 119.083 524.029 109.417 524.029 96.75ZM819.527 108.25C817.861 120.75 813.444 131.5 806.277 140.5C799.111 149.333 789.527 156.167 777.527 161C765.694 165.667 751.861 168 736.027 168C722.361 168 709.777 166.167 698.277 162.5C686.944 158.833 677.027 153.5 668.527 146.5C660.194 139.333 653.694 130.583 649.027 120.25C644.527 109.75 642.277 97.75 642.277 84.25C642.277 70.5833 644.527 58.5833 649.027 48.25C653.694 37.9167 660.194 29.1667 668.527 22C677.027 14.6667 686.944 9.16666 698.277 5.5C709.777 1.83333 722.361 -6.55651e-06 736.027 -6.55651e-06C752.027 -6.55651e-06 765.944 2.41666 777.777 7.24999C789.777 12.0833 799.361 19 806.527 28C813.694 37 818.027 47.8333 819.527 60.5H792.027C789.694 53 786.027 46.6667 781.027 41.5C776.027 36.1667 769.694 32.0833 762.027 29.25C754.527 26.4167 745.861 25 736.027 25C723.694 25 712.611 27.3333 702.777 32C692.944 36.5 685.194 43.1667 679.527 52C674.027 60.6667 671.277 71.4167 671.277 84.25C671.277 96.9167 674.027 107.667 679.527 116.5C685.194 125.167 692.944 131.75 702.777 136.25C712.611 140.75 723.694 143 736.027 143C745.861 143 754.527 141.667 762.027 139C769.527 136.167 775.777 132.167 780.777 127C785.777 121.667 789.444 115.417 791.777 108.25H819.527ZM867.811 127V102.75H964.311V127H867.811ZM830.311 165L901.061 3H931.561L1002.81 165H972.061L910.061 18.75H922.561L860.811 165H830.311ZM1176.7 135.5L1168.2 138.75V3H1196.45V165H1168.2L1046.7 33.25L1055.45 30V165H1026.95V3H1055.45L1176.7 135.5ZM1407.06 150.25H1394.31L1480.31 3H1508.56V165H1480.31V43.75L1486.81 45.5L1416.31 165H1385.31L1314.81 46L1321.56 44V165H1293.06V3H1321.56L1407.06 150.25ZM1569.96 127V102.75H1666.46V127H1569.96ZM1532.46 165L1603.21 3H1633.71L1704.96 165H1674.21L1612.21 18.75H1624.71L1562.96 165H1532.46ZM1787.1 86.25L1786.85 72.5L1890.35 165H1850.1L1757.35 80L1839.6 3H1879.35L1787.1 86.25ZM1729.1 3H1757.6V165H1729.1V3ZM1944.12 96V140.5H2057.87V165H1915.62V3H2057.62V27.5H1944.12V72.5H2037.12V96H1944.12ZM12.5 465V305H170C202.333 305 226.167 308.167 241.5 314.5C256.833 320.833 264.5 331.833 264.5 347.5C264.5 357.5 261.167 365.167 254.5 370.5C248 375.833 238.583 379.583 226.25 381.75C214.083 383.75 199.417 385 182.25 385.5L184.25 383.5C196.75 383.5 208.333 383.833 219 384.5C229.667 385.167 239 386.667 247 389C255 391.333 261.25 394.917 265.75 399.75C270.25 404.583 272.5 411.25 272.5 419.75C272.5 430.083 268.833 438.583 261.5 445.25C254.167 451.917 243.75 456.917 230.25 460.25C216.75 463.417 200.833 465 182.5 465H12.5ZM75 418H182.5C191.333 418 197.667 417.167 201.5 415.5C205.5 413.833 207.5 411.167 207.5 407.5C207.5 405 206.583 403 204.75 401.5C203.083 400 200.417 398.917 196.75 398.25C193.083 397.417 188.333 397 182.5 397H75V418ZM75 373H172C180.833 373 187.167 372.167 191 370.5C195 368.833 197 366.167 197 362.5C197 358.667 195 356 191 354.5C187.167 352.833 180.833 352 172 352H75V373ZM359.912 397.5V417.5H549.912V465H297.412V305H549.412V352.5H359.912V372.5H514.912V397.5H359.912ZM623.324 440.75V403.25H794.324V440.75H623.324ZM567.324 465L674.574 305H744.074L852.324 465H783.574L690.824 321.75H728.074L636.074 465H567.324ZM1084.66 373.75V305H1147.16V385C1147.16 399.167 1144.5 411.25 1139.16 421.25C1134 431.083 1126.75 439.25 1117.41 445.75C1108.08 452.083 1097.33 457 1085.16 460.5C1073 464 1059.91 466.417 1045.91 467.75C1032.08 469.25 1018 470 1003.66 470C988.495 470 973.829 469.25 959.662 467.75C945.495 466.417 932.329 464 920.162 460.5C908.162 457 897.662 452.083 888.662 445.75C879.662 439.25 872.579 431.083 867.412 421.25C862.412 411.25 859.912 399.167 859.912 385V305H922.412V373.75C922.412 387.083 925.662 397.25 932.162 404.25C938.662 411.25 947.912 416.083 959.912 418.75C972.079 421.25 986.662 422.5 1003.66 422.5C1020.16 422.5 1034.5 421.25 1046.66 418.75C1058.83 416.083 1068.16 411.25 1074.66 404.25C1081.33 397.25 1084.66 387.083 1084.66 373.75ZM1172.18 305H1432.18V352.5H1172.18V305ZM1270.93 349.25H1333.43V465H1270.93V349.25ZM1460.83 305H1523.33V465H1460.83V305ZM1814.06 305V352.5H1624.56V373.75H1779.56V416.25H1624.56V465H1562.06V305H1814.06ZM2068.79 373.75V305H2131.29V385C2131.29 399.167 2128.63 411.25 2123.29 421.25C2118.13 431.083 2110.88 439.25 2101.54 445.75C2092.21 452.083 2081.46 457 2069.29 460.5C2057.13 464 2044.04 466.417 2030.04 467.75C2016.21 469.25 2002.13 470 1987.79 470C1972.63 470 1957.96 469.25 1943.79 467.75C1929.63 466.417 1916.46 464 1904.29 460.5C1892.29 457 1881.79 452.083 1872.79 445.75C1863.79 439.25 1856.71 431.083 1851.54 421.25C1846.54 411.25 1844.04 399.167 1844.04 385V305H1906.54V373.75C1906.54 387.083 1909.79 397.25 1916.29 404.25C1922.79 411.25 1932.04 416.083 1944.04 418.75C1956.21 421.25 1970.79 422.5 1987.79 422.5C2004.29 422.5 2018.63 421.25 2030.79 418.75C2042.96 416.083 2052.29 411.25 2058.79 404.25C2065.46 397.25 2068.79 387.083 2068.79 373.75ZM2228.81 305V417.5H2374.56V465H2166.31V305H2228.81ZM75 697.5V717.5H265V765H12.5V605H264.5V652.5H75V672.5H230V697.5H75ZM548.162 716L524.912 729.25V605H587.412V765H524.912L336.662 656L359.912 642.5V765H297.412V605H359.912L548.162 716ZM768.113 770C746.447 770 726.53 768.667 708.363 766C690.363 763.5 674.697 759.167 661.363 753C648.197 746.667 637.947 738.083 630.613 727.25C623.447 716.417 619.863 702.75 619.863 686.25C619.863 669.75 623.53 656 630.863 645C638.197 633.833 648.697 625 662.363 618.5C676.197 611.833 692.613 607.083 711.613 604.25C730.78 601.417 752.113 600 775.613 600C806.447 600 832.28 602.833 853.113 608.5C874.113 614.167 890.113 622.25 901.113 632.75C912.113 643.083 918.03 655.417 918.863 669.75H853.863C851.863 666.083 848.197 662.583 842.863 659.25C837.53 655.75 829.53 652.917 818.863 650.75C808.197 648.583 793.78 647.5 775.613 647.5C754.28 647.5 736.947 648.833 723.613 651.5C710.28 654 700.53 658.083 694.363 663.75C688.197 669.417 685.113 676.917 685.113 686.25C685.113 694.417 688.28 701.167 694.613 706.5C700.947 711.833 711.113 715.833 725.113 718.5C739.113 721.167 757.613 722.5 780.613 722.5C796.78 722.5 810.78 721.833 822.613 720.5C834.613 719 845.447 716.75 855.113 713.75C864.947 710.75 874.697 707 884.363 702.5L890.363 709.75C880.03 729.25 864.697 744.167 844.363 754.5C824.03 764.833 798.613 770 768.113 770ZM873.363 765C873.363 760 874.03 754.333 875.363 748C876.697 741.667 878.363 735.083 880.363 728.25C882.53 721.25 884.613 714.667 886.613 708.5H789.113V682.25H922.363V765H873.363ZM998.324 740.75V703.25H1169.32V740.75H998.324ZM942.324 765L1049.57 605H1119.07L1227.32 765H1158.57L1065.82 621.75H1103.07L1011.07 765H942.324ZM1378.22 770C1356.55 770 1336.64 768.667 1318.47 766C1300.47 763.5 1284.8 759.167 1271.47 753C1258.3 746.667 1248.05 738.083 1240.72 727.25C1233.55 716.417 1229.97 702.75 1229.97 686.25C1229.97 669.75 1233.64 656 1240.97 645C1248.3 633.833 1258.8 625 1272.47 618.5C1286.3 611.833 1302.72 607.083 1321.72 604.25C1340.89 601.417 1362.22 600 1385.72 600C1416.55 600 1442.39 602.833 1463.22 608.5C1484.22 614.167 1500.22 622.25 1511.22 632.75C1522.22 643.083 1528.14 655.417 1528.97 669.75H1463.97C1461.97 666.083 1458.3 662.583 1452.97 659.25C1447.64 655.75 1439.64 652.917 1428.97 650.75C1418.3 648.583 1403.89 647.5 1385.72 647.5C1364.39 647.5 1347.05 648.833 1333.72 651.5C1320.39 654 1310.64 658.083 1304.47 663.75C1298.3 669.417 1295.22 676.917 1295.22 686.25C1295.22 694.417 1298.39 701.167 1304.72 706.5C1311.05 711.833 1321.22 715.833 1335.22 718.5C1349.22 721.167 1367.72 722.5 1390.72 722.5C1406.89 722.5 1420.89 721.833 1432.72 720.5C1444.72 719 1455.55 716.75 1465.22 713.75C1475.05 710.75 1484.8 707 1494.47 702.5L1500.47 709.75C1490.14 729.25 1474.8 744.167 1454.47 754.5C1434.14 764.833 1408.72 770 1378.22 770ZM1483.47 765C1483.47 760 1484.14 754.333 1485.47 748C1486.8 741.667 1488.47 735.083 1490.47 728.25C1492.64 721.25 1494.72 714.667 1496.72 708.5H1399.22V682.25H1532.47V765H1483.47ZM1571.18 605H1633.68V765H1571.18V605ZM1923.16 716L1899.91 729.25V605H1962.41V765H1899.91L1711.66 656L1734.91 642.5V765H1672.41V605H1734.91L1923.16 716ZM2143.11 770C2121.45 770 2101.53 768.667 2083.36 766C2065.36 763.5 2049.7 759.167 2036.36 753C2023.2 746.667 2012.95 738.083 2005.61 727.25C1998.45 716.417 1994.86 702.75 1994.86 686.25C1994.86 669.75 1998.53 656 2005.86 645C2013.2 633.833 2023.7 625 2037.36 618.5C2051.2 611.833 2067.61 607.083 2086.61 604.25C2105.78 601.417 2127.11 600 2150.61 600C2181.45 600 2207.28 602.833 2228.11 608.5C2249.11 614.167 2265.11 622.25 2276.11 632.75C2287.11 643.083 2293.03 655.417 2293.86 669.75H2228.86C2226.86 666.083 2223.2 662.583 2217.86 659.25C2212.53 655.75 2204.53 652.917 2193.86 650.75C2183.2 648.583 2168.78 647.5 2150.61 647.5C2129.28 647.5 2111.95 648.833 2098.61 651.5C2085.28 654 2075.53 658.083 2069.36 663.75C2063.2 669.417 2060.11 676.917 2060.11 686.25C2060.11 694.417 2063.28 701.167 2069.61 706.5C2075.95 711.833 2086.11 715.833 2100.11 718.5C2114.11 721.167 2132.61 722.5 2155.61 722.5C2171.78 722.5 2185.78 721.833 2197.61 720.5C2209.61 719 2220.45 716.75 2230.11 713.75C2239.95 710.75 2249.7 707 2259.36 702.5L2265.36 709.75C2255.03 729.25 2239.7 744.167 2219.36 754.5C2199.03 764.833 2173.61 770 2143.11 770ZM2248.36 765C2248.36 760 2249.03 754.333 2250.36 748C2251.7 741.667 2253.36 735.083 2255.36 728.25C2257.53 721.25 2259.61 714.667 2261.61 708.5H2164.11V682.25H2297.36V765H2248.36ZM75 997.5V1017.5H265V1065H12.5V905H264.5V952.5H75V972.5H230V997.5H75ZM474.912 905H554.912L442.412 1000L439.912 1002L367.412 1065H287.412L404.912 966.5L406.662 965L474.912 905ZM369.912 905L440.162 966.75L441.662 968.25L557.412 1065H477.412L401.912 999.75L400.912 998.75L289.912 905H369.912ZM866.123 998.25C865.29 1014.08 859.54 1027.33 848.873 1038C838.206 1048.67 822.456 1056.67 801.623 1062C780.956 1067.33 754.79 1070 723.123 1070C698.956 1070 677.29 1068.67 658.123 1066C638.956 1063.5 622.623 1059.17 609.123 1053C595.623 1046.67 585.29 1038.08 578.123 1027.25C570.956 1016.42 567.373 1002.75 567.373 986.25C567.373 969.75 570.956 956 578.123 945C585.29 933.833 595.623 925 609.123 918.5C622.623 911.833 638.956 907.083 658.123 904.25C677.29 901.417 698.956 900 723.123 900C754.79 900 781.04 902.917 801.873 908.75C822.706 914.417 838.456 922.833 849.123 934C859.79 945.167 865.54 958.75 866.373 974.75H801.373C799.373 969.417 795.706 964.75 790.373 960.75C785.04 956.583 777.04 953.333 766.373 951C755.706 948.667 741.29 947.5 723.123 947.5C701.79 947.5 684.456 948.833 671.123 951.5C657.79 954 648.04 958.083 641.873 963.75C635.706 969.417 632.623 976.917 632.623 986.25C632.623 994.75 635.706 1001.67 641.873 1007C648.04 1012.33 657.79 1016.25 671.123 1018.75C684.456 1021.25 701.79 1022.5 723.123 1022.5C741.29 1022.5 755.623 1021.42 766.123 1019.25C776.79 1017.08 784.79 1014.17 790.123 1010.5C795.456 1006.67 799.123 1002.58 801.123 998.25H866.123ZM902.725 905H965.225V1065H902.725V905ZM993.955 905H1253.96V952.5H993.955V905ZM1092.71 949.25H1155.21V1065H1092.71V949.25ZM1282.61 905H1345.11V1065H1282.61V905ZM1634.59 1016L1611.34 1029.25V905H1673.84V1065H1611.34L1423.09 956L1446.34 942.5V1065H1383.84V905H1446.34L1634.59 1016ZM1854.54 1070C1832.87 1070 1812.96 1068.67 1794.79 1066C1776.79 1063.5 1761.12 1059.17 1747.79 1053C1734.62 1046.67 1724.37 1038.08 1717.04 1027.25C1709.87 1016.42 1706.29 1002.75 1706.29 986.25C1706.29 969.75 1709.96 956 1717.29 945C1724.62 933.833 1735.12 925 1748.79 918.5C1762.62 911.833 1779.04 907.083 1798.04 904.25C1817.21 901.417 1838.54 900 1862.04 900C1892.87 900 1918.71 902.833 1939.54 908.5C1960.54 914.167 1976.54 922.25 1987.54 932.75C1998.54 943.083 2004.46 955.417 2005.29 969.75H1940.29C1938.29 966.083 1934.62 962.583 1929.29 959.25C1923.96 955.75 1915.96 952.917 1905.29 950.75C1894.62 948.583 1880.21 947.5 1862.04 947.5C1840.71 947.5 1823.37 948.833 1810.04 951.5C1796.71 954 1786.96 958.083 1780.79 963.75C1774.62 969.417 1771.54 976.917 1771.54 986.25C1771.54 994.417 1774.71 1001.17 1781.04 1006.5C1787.37 1011.83 1797.54 1015.83 1811.54 1018.5C1825.54 1021.17 1844.04 1022.5 1867.04 1022.5C1883.21 1022.5 1897.21 1021.83 1909.04 1020.5C1921.04 1019 1931.87 1016.75 1941.54 1013.75C1951.37 1010.75 1961.12 1007 1970.79 1002.5L1976.79 1009.75C1966.46 1029.25 1951.12 1044.17 1930.79 1054.5C1910.46 1064.83 1885.04 1070 1854.54 1070ZM1959.79 1065C1959.79 1060 1960.46 1054.33 1961.79 1048C1963.12 1041.67 1964.79 1035.08 1966.79 1028.25C1968.96 1021.25 1971.04 1014.67 1973.04 1008.5H1875.54V982.25H2008.79V1065H1959.79ZM88 1354.25H116V1415H88V1354.25ZM102 1368C83 1368 66.4167 1364.58 52.25 1357.75C38.25 1350.92 27.3333 1341.25 19.5 1328.75C11.8333 1316.25 8 1301.33 8 1284C8 1266.67 11.8333 1251.75 19.5 1239.25C27.3333 1226.58 38.25 1216.92 52.25 1210.25C66.4167 1203.42 83 1200 102 1200C121.167 1200 137.75 1203.42 151.75 1210.25C165.75 1216.92 176.583 1226.58 184.25 1239.25C192.083 1251.75 196 1266.67 196 1284C196 1301.33 192.083 1316.25 184.25 1328.75C176.583 1341.25 165.75 1350.92 151.75 1357.75C137.75 1364.58 121.167 1368 102 1368ZM102 1343C114.667 1343 125.833 1340.83 135.5 1336.5C145.167 1332.17 152.75 1325.67 158.25 1317C163.917 1308.17 166.75 1297.17 166.75 1284C166.75 1271 163.917 1260.17 158.25 1251.5C152.75 1242.67 145.167 1236.08 135.5 1231.75C125.833 1227.25 114.667 1225 102 1225C89.5 1225 78.3333 1227.25 68.5 1231.75C58.6667 1236.08 50.9167 1242.67 45.25 1251.5C39.5833 1260.17 36.75 1271 36.75 1284C36.75 1297.17 39.5833 1308.17 45.25 1317C50.9167 1325.67 58.6667 1332.17 68.5 1336.5C78.3333 1340.83 89.5 1343 102 1343ZM228.611 1365V1203H324.361C336.361 1203 346.778 1204.75 355.611 1208.25C364.445 1211.58 371.278 1216.83 376.111 1224C380.945 1231 383.361 1240 383.361 1251C383.361 1258.33 382.111 1264.67 379.611 1270C377.111 1275.17 373.611 1279.42 369.111 1282.75C364.611 1286.08 359.361 1288.67 353.361 1290.5C347.528 1292.33 341.278 1293.5 334.611 1294L332.111 1292.25C342.778 1292.42 351.611 1293.42 358.611 1295.25C365.611 1296.92 370.945 1300.17 374.611 1305C378.278 1309.67 380.111 1316.58 380.111 1325.75V1365H351.861V1327.25C351.861 1320.92 350.695 1316 348.361 1312.5C346.195 1308.83 342.361 1306.33 336.861 1305C331.528 1303.5 323.861 1302.75 313.861 1302.75H257.111V1365H228.611ZM257.111 1279.5H324.361C334.361 1279.5 341.945 1277 347.111 1272C352.278 1267 354.861 1260.42 354.861 1252.25C354.861 1244.42 352.278 1238.42 347.111 1234.25C341.945 1229.92 334.361 1227.75 324.361 1227.75H257.111V1279.5ZM646.432 1308.25C644.765 1320.75 640.348 1331.5 633.182 1340.5C626.015 1349.33 616.432 1356.17 604.432 1361C592.598 1365.67 578.765 1368 562.932 1368C549.265 1368 536.682 1366.17 525.182 1362.5C513.848 1358.83 503.932 1353.5 495.432 1346.5C487.098 1339.33 480.598 1330.58 475.932 1320.25C471.432 1309.75 469.182 1297.75 469.182 1284.25C469.182 1270.58 471.432 1258.58 475.932 1248.25C480.598 1237.92 487.098 1229.17 495.432 1222C503.932 1214.67 513.848 1209.17 525.182 1205.5C536.682 1201.83 549.265 1200 562.932 1200C578.932 1200 592.848 1202.42 604.682 1207.25C616.682 1212.08 626.265 1219 633.432 1228C640.598 1237 644.932 1247.83 646.432 1260.5H618.932C616.598 1253 612.932 1246.67 607.932 1241.5C602.932 1236.17 596.598 1232.08 588.932 1229.25C581.432 1226.42 572.765 1225 562.932 1225C550.598 1225 539.515 1227.33 529.682 1232C519.848 1236.5 512.098 1243.17 506.432 1252C500.932 1260.67 498.182 1271.42 498.182 1284.25C498.182 1296.92 500.932 1307.67 506.432 1316.5C512.098 1325.17 519.848 1331.75 529.682 1336.25C539.515 1340.75 550.598 1343 562.932 1343C572.765 1343 581.432 1341.67 588.932 1339C596.432 1336.17 602.682 1332.17 607.682 1327C612.682 1321.67 616.348 1315.42 618.682 1308.25H646.432ZM766.551 1368C747.551 1368 730.967 1364.58 716.801 1357.75C702.801 1350.92 691.884 1341.25 684.051 1328.75C676.384 1316.25 672.551 1301.33 672.551 1284C672.551 1266.67 676.384 1251.75 684.051 1239.25C691.884 1226.58 702.801 1216.92 716.801 1210.25C730.967 1203.42 747.551 1200 766.551 1200C785.717 1200 802.301 1203.42 816.301 1210.25C830.301 1216.92 841.134 1226.58 848.801 1239.25C856.634 1251.75 860.551 1266.67 860.551 1284C860.551 1301.33 856.634 1316.25 848.801 1328.75C841.134 1341.25 830.301 1350.92 816.301 1357.75C802.301 1364.58 785.717 1368 766.551 1368ZM766.551 1343C779.217 1343 790.384 1340.83 800.051 1336.5C809.717 1332.17 817.301 1325.67 822.801 1317C828.467 1308.17 831.301 1297.17 831.301 1284C831.301 1271 828.467 1260.17 822.801 1251.5C817.301 1242.67 809.717 1236.08 800.051 1231.75C790.384 1227.25 779.217 1225 766.551 1225C754.051 1225 742.884 1227.25 733.051 1231.75C723.217 1236.08 715.467 1242.67 709.801 1251.5C704.134 1260.17 701.301 1271 701.301 1284C701.301 1297.17 704.134 1308.17 709.801 1317C715.467 1325.67 723.217 1332.17 733.051 1336.5C742.884 1340.83 754.051 1343 766.551 1343ZM970.912 1203C988.412 1203 1003.08 1205.17 1014.91 1209.5C1026.75 1213.83 1036.16 1219.75 1043.16 1227.25C1050.16 1234.58 1055.16 1243.08 1058.16 1252.75C1061.33 1262.42 1062.91 1272.58 1062.91 1283.25C1062.91 1294.08 1061.25 1304.42 1057.91 1314.25C1054.58 1324.08 1049.25 1332.83 1041.91 1340.5C1034.75 1348 1025.33 1354 1013.66 1358.5C1002 1362.83 987.745 1365 970.912 1365H893.162V1203H970.912ZM921.662 1340H970.662C982.995 1340 993.245 1338.42 1001.41 1335.25C1009.58 1332.08 1016.08 1327.83 1020.91 1322.5C1025.75 1317 1029.16 1310.92 1031.16 1304.25C1033.16 1297.42 1034.16 1290.42 1034.16 1283.25C1034.16 1276.08 1033.16 1269.25 1031.16 1262.75C1029.16 1256.08 1025.75 1250.17 1020.91 1245C1016.08 1239.67 1009.58 1235.5 1001.41 1232.5C993.245 1229.33 982.995 1227.75 970.662 1227.75H921.662V1340ZM1123.57 1296V1340.5H1237.32V1365H1095.07V1203H1237.07V1227.5H1123.57V1272.5H1216.57V1296H1123.57ZM1261.07 1311.25H1288.82C1289.49 1317.42 1291.91 1323 1296.07 1328C1300.41 1332.83 1306.07 1336.67 1313.07 1339.5C1320.24 1342.17 1328.41 1343.5 1337.57 1343.5C1345.74 1343.5 1352.49 1342.5 1357.82 1340.5C1363.16 1338.5 1367.07 1335.75 1369.57 1332.25C1372.24 1328.58 1373.57 1324.33 1373.57 1319.5C1373.57 1314.67 1371.99 1310.92 1368.82 1308.25C1365.82 1305.42 1361.16 1303.08 1354.82 1301.25C1348.49 1299.25 1340.41 1297.33 1330.57 1295.5C1322.41 1294 1314.49 1292 1306.82 1289.5C1299.16 1287 1292.24 1283.83 1286.07 1280C1280.07 1276.17 1275.32 1271.5 1271.82 1266C1268.32 1260.33 1266.57 1253.67 1266.57 1246C1266.57 1237.33 1268.99 1229.5 1273.82 1222.5C1278.82 1215.5 1286.16 1210 1295.82 1206C1305.49 1202 1317.24 1200 1331.07 1200C1352.24 1200 1368.41 1204.92 1379.57 1214.75C1390.74 1224.42 1396.16 1237.58 1395.82 1254.25H1368.57C1368.07 1243.75 1364.24 1236.17 1357.07 1231.5C1349.91 1226.83 1340.82 1224.5 1329.82 1224.5C1319.99 1224.5 1311.74 1226.25 1305.07 1229.75C1298.41 1233.25 1295.07 1238.92 1295.07 1246.75C1295.07 1250.08 1295.82 1253 1297.32 1255.5C1298.99 1257.83 1301.66 1260 1305.32 1262C1308.99 1263.83 1313.99 1265.67 1320.32 1267.5C1326.82 1269.17 1334.74 1271 1344.07 1273C1352.07 1274.33 1359.57 1276.17 1366.57 1278.5C1373.57 1280.83 1379.66 1283.75 1384.82 1287.25C1390.16 1290.75 1394.32 1295.25 1397.32 1300.75C1400.32 1306.25 1401.82 1313 1401.82 1321C1401.82 1330.17 1399.49 1338.33 1394.82 1345.5C1390.16 1352.5 1382.99 1358.08 1373.32 1362.25C1363.82 1366.25 1351.49 1368.25 1336.32 1368.25C1324.82 1368.25 1314.74 1366.92 1306.07 1364.25C1297.57 1361.42 1290.32 1357.83 1284.32 1353.5C1278.32 1349 1273.49 1344.17 1269.82 1339C1266.32 1333.83 1263.82 1328.83 1262.32 1324C1260.99 1319 1260.57 1314.75 1261.07 1311.25ZM64.75 1665L3.53903e-07 1503H31L86 1645.5H77L129.5 1503H161.75L214.25 1645.5H205.25L260.25 1503H290.75L226.75 1665H193.25L141.5 1522.75H150L98 1665H64.75ZM320.031 1503H348.531V1665H320.031V1503ZM377.186 1503H532.686V1527.5H377.186V1503ZM440.936 1524.5H469.186V1665H440.936V1524.5ZM581.986 1571.75H700.986V1596H581.986V1571.75ZM696.986 1503H725.236V1665H696.986V1503ZM556.736 1503H585.236V1665H556.736V1503ZM895.373 1654.25H923.373V1715H895.373V1654.25ZM909.373 1668C890.373 1668 873.79 1664.58 859.623 1657.75C845.623 1650.92 834.706 1641.25 826.873 1628.75C819.206 1616.25 815.373 1601.33 815.373 1584C815.373 1566.67 819.206 1551.75 826.873 1539.25C834.706 1526.58 845.623 1516.92 859.623 1510.25C873.79 1503.42 890.373 1500 909.373 1500C928.54 1500 945.123 1503.42 959.123 1510.25C973.123 1516.92 983.956 1526.58 991.623 1539.25C999.456 1551.75 1003.37 1566.67 1003.37 1584C1003.37 1601.33 999.456 1616.25 991.623 1628.75C983.956 1641.25 973.123 1650.92 959.123 1657.75C945.123 1664.58 928.54 1668 909.373 1668ZM909.373 1643C922.04 1643 933.206 1640.83 942.873 1636.5C952.54 1632.17 960.123 1625.67 965.623 1617C971.29 1608.17 974.123 1597.17 974.123 1584C974.123 1571 971.29 1560.17 965.623 1551.5C960.123 1542.67 952.54 1536.08 942.873 1531.75C933.206 1527.25 922.04 1525 909.373 1525C896.873 1525 885.706 1527.25 875.873 1531.75C866.04 1536.08 858.29 1542.67 852.623 1551.5C846.956 1560.17 844.123 1571 844.123 1584C844.123 1597.17 846.956 1608.17 852.623 1617C858.29 1625.67 866.04 1632.17 875.873 1636.5C885.706 1640.83 896.873 1643 909.373 1643ZM1035.98 1665V1503H1131.73C1143.73 1503 1154.15 1504.75 1162.98 1508.25C1171.82 1511.58 1178.65 1516.83 1183.48 1524C1188.32 1531 1190.73 1540 1190.73 1551C1190.73 1558.33 1189.48 1564.67 1186.98 1570C1184.48 1575.17 1180.98 1579.42 1176.48 1582.75C1171.98 1586.08 1166.73 1588.67 1160.73 1590.5C1154.9 1592.33 1148.65 1593.5 1141.98 1594L1139.48 1592.25C1150.15 1592.42 1158.98 1593.42 1165.98 1595.25C1172.98 1596.92 1178.32 1600.17 1181.98 1605C1185.65 1609.67 1187.48 1616.58 1187.48 1625.75V1665H1159.23V1627.25C1159.23 1620.92 1158.07 1616 1155.73 1612.5C1153.57 1608.83 1149.73 1606.33 1144.23 1605C1138.9 1603.5 1131.23 1602.75 1121.23 1602.75H1064.48V1665H1035.98ZM1064.48 1579.5H1131.73C1141.73 1579.5 1149.32 1577 1154.48 1572C1159.65 1567 1162.23 1560.42 1162.23 1552.25C1162.23 1544.42 1159.65 1538.42 1154.48 1534.25C1149.32 1529.92 1141.73 1527.75 1131.73 1527.75H1064.48V1579.5ZM1307.05 1610.75V1587H1372.55C1381.72 1587 1389.05 1584.33 1394.55 1579C1400.22 1573.67 1403.05 1566.5 1403.05 1557.5C1403.05 1548.17 1400.22 1540.92 1394.55 1535.75C1389.05 1530.42 1381.72 1527.75 1372.55 1527.75H1311.05V1665H1282.55V1503H1370.55C1379.05 1503 1386.97 1504.17 1394.3 1506.5C1401.64 1508.67 1408.05 1512 1413.55 1516.5C1419.22 1521 1423.55 1526.67 1426.55 1533.5C1429.72 1540.17 1431.3 1548.17 1431.3 1557.5C1431.3 1566.67 1429.72 1574.67 1426.55 1581.5C1423.55 1588.17 1419.22 1593.67 1413.55 1598C1408.05 1602.33 1401.64 1605.58 1394.3 1607.75C1386.97 1609.75 1379.05 1610.75 1370.55 1610.75H1307.05ZM1545.12 1668C1526.12 1668 1509.53 1664.58 1495.37 1657.75C1481.37 1650.92 1470.45 1641.25 1462.62 1628.75C1454.95 1616.25 1451.12 1601.33 1451.12 1584C1451.12 1566.67 1454.95 1551.75 1462.62 1539.25C1470.45 1526.58 1481.37 1516.92 1495.37 1510.25C1509.53 1503.42 1526.12 1500 1545.12 1500C1564.28 1500 1580.87 1503.42 1594.87 1510.25C1608.87 1516.92 1619.7 1526.58 1627.37 1539.25C1635.2 1551.75 1639.12 1566.67 1639.12 1584C1639.12 1601.33 1635.2 1616.25 1627.37 1628.75C1619.7 1641.25 1608.87 1650.92 1594.87 1657.75C1580.87 1664.58 1564.28 1668 1545.12 1668ZM1545.12 1643C1557.78 1643 1568.95 1640.83 1578.62 1636.5C1588.28 1632.17 1595.87 1625.67 1601.37 1617C1607.03 1608.17 1609.87 1597.17 1609.87 1584C1609.87 1571 1607.03 1560.17 1601.37 1551.5C1595.87 1542.67 1588.28 1536.08 1578.62 1531.75C1568.95 1527.25 1557.78 1525 1545.12 1525C1532.62 1525 1521.45 1527.25 1511.62 1531.75C1501.78 1536.08 1494.03 1542.67 1488.37 1551.5C1482.7 1560.17 1479.87 1571 1479.87 1584C1479.87 1597.17 1482.7 1608.17 1488.37 1617C1494.03 1625.67 1501.78 1632.17 1511.62 1636.5C1521.45 1640.83 1532.62 1643 1545.12 1643ZM1695.73 1610.75V1587H1761.23C1770.39 1587 1777.73 1584.33 1783.23 1579C1788.89 1573.67 1791.73 1566.5 1791.73 1557.5C1791.73 1548.17 1788.89 1540.92 1783.23 1535.75C1777.73 1530.42 1770.39 1527.75 1761.23 1527.75H1699.73V1665H1671.23V1503H1759.23C1767.73 1503 1775.64 1504.17 1782.98 1506.5C1790.31 1508.67 1796.73 1512 1802.23 1516.5C1807.89 1521 1812.23 1526.67 1815.23 1533.5C1818.39 1540.17 1819.98 1548.17 1819.98 1557.5C1819.98 1566.67 1818.39 1574.67 1815.23 1581.5C1812.23 1588.17 1807.89 1593.67 1802.23 1598C1796.73 1602.33 1790.31 1605.58 1782.98 1607.75C1775.64 1609.75 1767.73 1610.75 1759.23 1610.75H1695.73Z" fill="white"/>
</svg>
